<?xml version="1.0" encoding="utf-8"?>
<!-- Generator: Adobe Illustrator 21.0.2, SVG Export Plug-In . SVG Version: 6.00 Build 0)  -->
<svg version="1.1" id="Calque_1" xmlns="http://www.w3.org/2000/svg" xmlns:xlink="http://www.w3.org/1999/xlink" x="0px" y="0px"
	 viewBox="0 0 55.7 18.3" style="enable-background:new 0 0 55.7 18.3;" xml:space="preserve">
<style type="text/css">
	.st0{fill:#230D50;}
	.st1{fill:#5400FF;}
</style>
<g>
	<path class="st0" d="M6.3,15.6c2.1,0.2,3.7,0.9,3.6,1.8c0.7,0.1,1.5,0.1,2.3,0.2c0,0,0,0,0,0c0.1-0.9,1.9-1.5,4-1.4
		c2.2,0.1,3.9,0.9,3.8,1.7c0,0,0,0.1,0,0.1c0.8,0,1.6,0.1,2.5,0.1c0,0,0-0.1,0-0.1c0-0.9,2.3-1.5,5.1-1.5c2.8,0,5.1,0.8,5.1,1.6
		c0,0,0,0.1,0,0.1c0.8,0,1.7,0,2.5,0c0,0,0-0.1,0-0.1c0-0.9,1.7-1.6,3.9-1.6c2.2,0,4,0.6,4,1.5c0,0,0,0,0,0c0.8,0,1.6-0.1,2.3-0.1
		c0-0.8,1.6-1.6,3.7-1.7c1.9-0.1,3.6,0.4,4,1.1c1.5-0.1,2.4-0.3,2.4-0.3c-0.7-0.7-1.4-5.9-1.8-8c-0.6-2.6-3-4.2-5.3-4.5
		c-2.3-0.3-7.9-1-20.3-1.2S9.8,3.9,7.5,4.1C5.2,4.3,2.7,5.8,2,8.4c-0.5,2-1.3,7.2-2,7.9c0,0,0.8,0.1,2.4,0.3
		C2.8,15.9,4.4,15.5,6.3,15.6z"/>
	<path class="st1" d="M6.7,12.2c2.1,0.2,3.7,0.9,3.6,1.8c0.7,0.1,1.5,0.1,2.3,0.2c0,0,0,0,0,0c0.1-0.9,1.9-1.5,4-1.4
		c2.2,0.1,3.9,0.9,3.8,1.7c0,0,0,0.1,0,0.1c0.8,0,1.6,0.1,2.5,0.1c0,0,0-0.1,0-0.1c0-0.9,2.3-1.5,5.1-1.5s5.1,0.8,5.1,1.6
		c0,0,0,0.1,0,0.1c0.8,0,1.7,0,2.5,0c0,0,0-0.1,0-0.1c0-0.9,1.7-1.6,3.9-1.6c2.2,0,4,0.6,4,1.5c0,0,0,0,0,0c0.8,0,1.6-0.1,2.3-0.1
		c0-0.8,1.6-1.6,3.7-1.7c1.9-0.1,3.6,0.4,4,1.1c1.5-0.1,2.4-0.3,2.4-0.3c-0.7-0.7-1.4-5.9-1.8-8c-0.6-2.6-3-4.2-5.3-4.5
		c-2.3-0.3-7.9-1-20.3-1.2S10.1,0.5,7.8,0.7S3,2.4,2.4,5c-0.5,2-1.3,7.2-2,7.9c0,0,0.8,0.1,2.4,0.3C3.1,12.5,4.7,12.1,6.7,12.2z"/>
</g>
</svg>
