<?xml version="1.0" encoding="utf-8"?>
<!-- Generator: Adobe Illustrator 21.0.2, SVG Export Plug-In . SVG Version: 6.00 Build 0)  -->
<svg version="1.1" id="Calque_1" xmlns="http://www.w3.org/2000/svg" xmlns:xlink="http://www.w3.org/1999/xlink" x="0px" y="0px"
	 viewBox="0 0 446.3 102.8" style="enable-background:new 0 0 446.3 102.8;" xml:space="preserve">
<style type="text/css">
	.st0{fill:#11042B;}
	.st1{fill:#230D50;}
	.st2{fill:#5400FF;}
	.st3{fill:#FFFFFF;}
</style>
<g>
	<path class="st0" d="M27.7,77.8c1.5,2.3,3.5,4.1,6,5.5c2.5,1.4,5.1,2.1,8,2.1c3.1,0,5.9-0.7,8.4-2.1c2.6-1.4,4.6-3.3,6-5.5
		c1.5-2.3,2.2-4.7,2.2-7.1V21.2h15.2V71c0,5.6-1.4,10.7-4.3,15.2c-2.8,4.5-6.7,8-11.6,10.6c-4.9,2.5-10.2,3.8-16,3.8
		c-5.8,0-11.2-1.3-16-3.8c-4.8-2.5-8.7-6-11.5-10.6C11.4,81.6,10,76.6,10,71V21.2h15.5v49.4C25.5,73.1,26.2,75.5,27.7,77.8z"/>
	<path class="st0" d="M160.2,21.2v81.6h-0.4l-54.9-49.6l0.3,46.4H89.5V18.1h0.6l54.8,50.3l-0.3-47.2H160.2z"/>
	<path class="st0" d="M227.1,98c-4.3,1.6-9.1,2.5-14.2,2.5c-8.2,0-15.3-1.8-21.3-5.3c-6-3.6-10.7-8.3-13.9-14.3
		c-3.2-6-4.8-12.6-4.8-19.8c0-7.9,1.6-14.9,4.8-21.1s7.7-11,13.4-14.4c5.8-3.4,12.4-5.2,19.9-5.2c4.8,0,9.2,0.6,13.2,1.9
		s7.6,2.9,10.7,4.8l-6.1,14.6c-5.6-4.3-11.4-6.4-17.3-6.4c-4,0-7.7,1.1-11.2,3.3c-3.5,2.2-6.3,5.2-8.3,9c-2.1,3.8-3.1,8-3.1,12.6
		c0,5,1,9.5,2.9,13.3c1.9,3.8,4.7,6.8,8.2,8.9c3.6,2.1,7.7,3.2,12.5,3.2c3.8,0,7.3-0.6,10.3-1.9c3.1-1.2,5.5-2.7,7.2-4.4l6.4,13.9
		C234.6,94.8,231.4,96.4,227.1,98z"/>
	<path class="st0" d="M295.4,28.3c5.3,4.7,7.9,11.2,7.9,19.3c0,4.7-0.9,9.1-2.7,13.2c-1.8,4.1-4.8,7.4-8.8,10.1
		c-4.1,2.6-9.4,3.9-15.8,3.9h-11.1v24.8h-15.5V21.2h23.8C282.7,21.2,290.1,23.5,295.4,28.3z M282.8,57.8c1.8-1.3,3.1-2.9,3.8-4.6
		c0.8-1.8,1.2-3.5,1.2-5.1c0-2.8-0.8-5.5-2.5-8c-1.6-2.6-4.8-3.9-9.5-3.9h-11.1v23.7h11C278.7,59.8,281,59.1,282.8,57.8z"/>
	<path class="st0" d="M360.5,28.3c5.3,4.7,7.9,11.2,7.9,19.3c0,4.7-0.9,9.1-2.7,13.2c-1.8,4.1-4.8,7.4-8.8,10.1
		c-4.1,2.6-9.4,3.9-15.8,3.9h-11.1v24.8h-15.5V21.2h23.8C347.8,21.2,355.2,23.5,360.5,28.3z M347.9,57.8c1.8-1.3,3.1-2.9,3.8-4.6
		c0.8-1.8,1.2-3.5,1.2-5.1c0-2.8-0.8-5.5-2.5-8c-1.6-2.6-4.8-3.9-9.5-3.9h-11.1v23.7h11C343.8,59.8,346.2,59.1,347.9,57.8z"/>
	<path class="st0" d="M379.6,21.2H403c10,0,18.3,1.9,24.7,5.8c6.5,3.9,11.2,8.9,14.1,15c2.9,6.1,4.4,12.7,4.4,19.8
		c0,7.5-1.8,14.2-5.3,19.9c-3.6,5.8-8.3,10.2-14.3,13.3c-6,3.1-12.6,4.6-19.8,4.6h-27.3V21.2z M404.2,84.7c8,0,14.4-2.1,19.1-6.2
		c4.7-4.1,7-10.1,7-17.8c0-6.3-1.3-11.2-3.9-14.9c-2.6-3.7-5.6-6.3-9.1-7.7c-3.4-1.4-6.7-2.1-9.8-2.1H395v48.7H404.2z"/>
</g>
<g>
	<path class="st1" d="M22.7,72.8c1.5,2.3,3.5,4.1,6,5.5c2.5,1.4,5.1,2.1,8,2.1c3.1,0,5.9-0.7,8.4-2.1c2.6-1.4,4.6-3.3,6-5.5
		c1.5-2.3,2.2-4.7,2.2-7.1V16.2h15.2V66c0,5.6-1.4,10.7-4.3,15.2c-2.8,4.5-6.7,8-11.6,10.6c-4.9,2.5-10.2,3.8-16,3.8
		c-5.8,0-11.2-1.3-16-3.8c-4.8-2.5-8.7-6-11.5-10.6C6.4,76.6,5,71.6,5,66V16.2h15.5v49.4C20.5,68.1,21.2,70.5,22.7,72.8z"/>
	<path class="st1" d="M155.2,16.2v81.6h-0.4L99.8,48.3l0.3,46.4H84.5V13.1h0.6l54.8,50.3l-0.3-47.2H155.2z"/>
	<path class="st1" d="M222.1,93c-4.3,1.6-9.1,2.5-14.2,2.5c-8.2,0-15.3-1.8-21.3-5.3c-6-3.6-10.7-8.3-13.9-14.3
		c-3.2-6-4.8-12.6-4.8-19.8c0-7.9,1.6-14.9,4.8-21.1s7.7-11,13.4-14.4c5.8-3.4,12.4-5.2,19.9-5.2c4.8,0,9.2,0.6,13.2,1.9
		s7.6,2.9,10.7,4.8l-6.1,14.6c-5.6-4.3-11.4-6.4-17.3-6.4c-4,0-7.7,1.1-11.2,3.3c-3.5,2.2-6.3,5.2-8.3,9c-2.1,3.8-3.1,8-3.1,12.6
		c0,5,1,9.5,2.9,13.3c1.9,3.8,4.7,6.8,8.2,8.9c3.6,2.1,7.7,3.2,12.5,3.2c3.8,0,7.3-0.6,10.3-1.9c3.1-1.2,5.5-2.7,7.2-4.4l6.4,13.9
		C229.6,89.8,226.4,91.4,222.1,93z"/>
	<path class="st1" d="M290.4,23.3c5.3,4.7,7.9,11.2,7.9,19.3c0,4.7-0.9,9.1-2.7,13.2c-1.8,4.1-4.8,7.4-8.8,10.1
		c-4.1,2.6-9.4,3.9-15.8,3.9h-11.1v24.8h-15.5V16.2h23.8C277.7,16.2,285.1,18.5,290.4,23.3z M277.8,52.8c1.8-1.3,3.1-2.9,3.8-4.6
		c0.8-1.8,1.2-3.5,1.2-5.1c0-2.8-0.8-5.5-2.5-8c-1.6-2.6-4.8-3.9-9.5-3.9h-11.1v23.7h11C273.7,54.8,276,54.1,277.8,52.8z"/>
	<path class="st1" d="M355.5,23.3c5.3,4.7,7.9,11.2,7.9,19.3c0,4.7-0.9,9.1-2.7,13.2c-1.8,4.1-4.8,7.4-8.8,10.1
		c-4.1,2.6-9.4,3.9-15.8,3.9h-11.1v24.8h-15.5V16.2h23.8C342.8,16.2,350.2,18.5,355.5,23.3z M342.9,52.8c1.8-1.3,3.1-2.9,3.8-4.6
		c0.8-1.8,1.2-3.5,1.2-5.1c0-2.8-0.8-5.5-2.5-8c-1.6-2.6-4.8-3.9-9.5-3.9h-11.1v23.7h11C338.8,54.8,341.2,54.1,342.9,52.8z"/>
	<path class="st1" d="M374.6,16.2H398c10,0,18.3,1.9,24.7,5.8c6.5,3.9,11.2,8.9,14.1,15c2.9,6.1,4.4,12.7,4.4,19.8
		c0,7.5-1.8,14.2-5.3,19.9c-3.6,5.8-8.3,10.2-14.3,13.3c-6,3.1-12.6,4.6-19.8,4.6h-27.3V16.2z M399.2,79.7c8,0,14.4-2.1,19.1-6.2
		c4.7-4.1,7-10.1,7-17.8c0-6.3-1.3-11.2-3.9-14.9c-2.6-3.7-5.6-6.3-9.1-7.7c-3.4-1.4-6.7-2.1-9.8-2.1H390v48.7H399.2z"/>
</g>
<g>
	<path class="st2" d="M17.7,67.8c1.5,2.3,3.5,4.1,6,5.5c2.5,1.4,5.1,2.1,8,2.1c3.1,0,5.9-0.7,8.4-2.1c2.6-1.4,4.6-3.3,6-5.5
		c1.5-2.3,2.2-4.7,2.2-7.1V11.2h15.2V61c0,5.6-1.4,10.7-4.3,15.2c-2.8,4.5-6.7,8-11.6,10.6c-4.9,2.5-10.2,3.8-16,3.8
		c-5.8,0-11.2-1.3-16-3.8c-4.8-2.5-8.7-6-11.5-10.6C1.4,71.6,0,66.6,0,61V11.2h15.5v49.4C15.5,63.1,16.2,65.5,17.7,67.8z"/>
	<path class="st2" d="M150.2,11.2v81.6h-0.4L94.8,43.3l0.3,46.4H79.5V8.1h0.6l54.8,50.3l-0.3-47.2H150.2z"/>
	<path class="st2" d="M217.1,88c-4.3,1.6-9.1,2.5-14.2,2.5c-8.2,0-15.3-1.8-21.3-5.3c-6-3.6-10.7-8.3-13.9-14.3
		c-3.2-6-4.8-12.6-4.8-19.8c0-7.9,1.6-14.9,4.8-21.1s7.7-11,13.4-14.4c5.8-3.4,12.4-5.2,19.9-5.2c4.8,0,9.2,0.6,13.2,1.9
		s7.6,2.9,10.7,4.8l-6.1,14.6c-5.6-4.3-11.4-6.4-17.3-6.4c-4,0-7.7,1.1-11.2,3.3c-3.5,2.2-6.3,5.2-8.3,9c-2.1,3.8-3.1,8-3.1,12.6
		c0,5,1,9.5,2.9,13.3c1.9,3.8,4.7,6.8,8.2,8.9c3.6,2.1,7.7,3.2,12.5,3.2c3.8,0,7.3-0.6,10.3-1.9c3.1-1.2,5.5-2.7,7.2-4.4l6.4,13.9
		C224.6,84.8,221.4,86.4,217.1,88z"/>
	<path class="st2" d="M285.4,18.3c5.3,4.7,7.9,11.2,7.9,19.3c0,4.7-0.9,9.1-2.7,13.2c-1.8,4.1-4.8,7.4-8.8,10.1
		c-4.1,2.6-9.4,3.9-15.8,3.9h-11.1v24.8h-15.5V11.2h23.8C272.7,11.2,280.1,13.5,285.4,18.3z M272.8,47.8c1.8-1.3,3.1-2.9,3.8-4.6
		c0.8-1.8,1.2-3.5,1.2-5.1c0-2.8-0.8-5.5-2.5-8c-1.6-2.6-4.8-3.9-9.5-3.9h-11.1v23.7h11C268.7,49.8,271,49.1,272.8,47.8z"/>
	<path class="st2" d="M350.5,18.3c5.3,4.7,7.9,11.2,7.9,19.3c0,4.7-0.9,9.1-2.7,13.2c-1.8,4.1-4.8,7.4-8.8,10.1
		c-4.1,2.6-9.4,3.9-15.8,3.9h-11.1v24.8h-15.5V11.2h23.8C337.8,11.2,345.2,13.5,350.5,18.3z M337.9,47.8c1.8-1.3,3.1-2.9,3.8-4.6
		c0.8-1.8,1.2-3.5,1.2-5.1c0-2.8-0.8-5.5-2.5-8c-1.6-2.6-4.8-3.9-9.5-3.9h-11.1v23.7h11C333.8,49.8,336.2,49.1,337.9,47.8z"/>
	<path class="st2" d="M369.6,11.2H393c10,0,18.3,1.9,24.7,5.8c6.5,3.9,11.2,8.9,14.1,15c2.9,6.1,4.4,12.7,4.4,19.8
		c0,7.5-1.8,14.2-5.3,19.9c-3.6,5.8-8.3,10.2-14.3,13.3c-6,3.1-12.6,4.6-19.8,4.6h-27.3V11.2z M394.2,74.7c8,0,14.4-2.1,19.1-6.2
		c4.7-4.1,7-10.1,7-17.8c0-6.3-1.3-11.2-3.9-14.9c-2.6-3.7-5.6-6.3-9.1-7.7c-3.4-1.4-6.7-2.1-9.8-2.1H385v48.7H394.2z"/>
</g>
<path class="st0" d="M388.8,12.7c1.9,0.9,3.1,2.2,2.8,3c0.7,0.3,1.4,0.7,2.1,1c0,0,0,0,0,0c0.4-0.8,2.3-0.7,4.3,0.1
	c2,0.9,3.3,2.2,3,3c0,0-0.1,0.1-0.1,0.1c0.7,0.3,1.5,0.6,2.3,1c0,0,0-0.1,0-0.1c0.3-0.8,2.7-0.6,5.3,0.4c2.6,1,4.5,2.5,4.2,3.3
	c0,0-0.1,0.1-0.1,0.1c0.8,0.3,1.6,0.6,2.3,0.9c0,0,0-0.1,0-0.1c0.3-0.8,2.1-0.9,4.2-0.1c2,0.7,3.5,2,3.2,2.8c0,0,0,0,0,0
	c0.8,0.3,1.5,0.5,2.2,0.7c0.3-0.8,2-0.9,4-0.3c1.8,0.6,3.2,1.6,3.3,2.5c1.5,0.4,2.3,0.6,2.3,0.6c-0.4-0.9,0.8-6,1.1-8.1
	c0.4-2.6-1.4-5-3.4-6.1c-2-1.1-7-3.7-18.6-8.3c-11.6-4.6-17-6-19.2-6.6c-2.2-0.6-5.1-0.1-6.6,2.1c-1.2,1.7-3.8,6.3-4.7,6.7
	c0,0,0.7,0.4,2.1,1.1C385.4,11.7,387.1,11.9,388.8,12.7z"/>
<path class="st3" d="M389.8,10.6c1.9,0.9,3.1,2.2,2.8,3c0.7,0.3,1.4,0.7,2.1,1c0,0,0,0,0,0c0.4-0.8,2.3-0.7,4.3,0.1
	c2,0.9,3.3,2.2,3,3c0,0-0.1,0.1-0.1,0.1c0.7,0.3,1.5,0.6,2.3,1c0,0,0-0.1,0-0.1c0.3-0.8,2.7-0.6,5.3,0.4c2.6,1,4.5,2.5,4.2,3.3
	c0,0-0.1,0.1-0.1,0.1c0.8,0.3,1.6,0.6,2.3,0.9c0,0,0-0.1,0-0.1c0.3-0.8,2.1-0.9,4.2-0.1c2,0.7,3.5,2,3.2,2.8c0,0,0,0,0,0
	c0.8,0.3,1.5,0.5,2.2,0.7c0.3-0.8,2-0.9,4-0.3c1.8,0.6,3.2,1.6,3.3,2.5c1.5,0.4,2.3,0.6,2.3,0.6c-0.4-0.9,0.8-6,1.1-8.1
	c0.4-2.6-1.4-5-3.4-6.1c-2-1.1-7-3.7-18.6-8.3c-11.6-4.6-17-6-19.2-6.6c-2.2-0.6-5.1-0.1-6.6,2.1c-1.2,1.7-3.8,6.3-4.7,6.7
	c0,0,0.7,0.4,2.1,1.1C386.4,9.6,388.1,9.8,389.8,10.6z"/>
</svg>
