<?xml version="1.0" encoding="utf-8"?>
<!-- Generator: Adobe Illustrator 21.0.2, SVG Export Plug-In . SVG Version: 6.00 Build 0)  -->
<svg version="1.1" id="Calque_1" xmlns="http://www.w3.org/2000/svg" xmlns:xlink="http://www.w3.org/1999/xlink" x="0px" y="0px"
	 viewBox="0 0 326.9 184.9" style="enable-background:new 0 0 326.9 184.9;" xml:space="preserve">
<style type="text/css">
	.st0{fill:#17204A;}
	.st1{fill:none;stroke:#17204A;stroke-width:2;}
</style>
<g>
	<path class="st0" d="M46.2,184.9c-6.3,0-12.1-1.1-17.6-3.4c-5.5-2.3-10.3-5.4-14.4-9.4s-7.4-8.6-9.7-13.9c-2.4-5.3-3.6-11-3.6-17.1
		c0-6,1.2-11.7,3.6-17c2.4-5.3,5.7-10,9.8-14c4.1-4,8.9-7.1,14.4-9.4c5.5-2.3,11.4-3.5,17.6-3.5c8.7,0,16,1.1,21.7,3.4
		c5.7,2.2,10.3,5.3,13.8,9l-16.7,22.3c-1.7-2.8-4-5-7-6.7c-3-1.6-6.3-2.5-9.9-2.5c-2.6,0-5.1,0.5-7.5,1.4c-2.3,1-4.4,2.3-6.1,4
		s-3.1,3.7-4.2,5.9c-1,2.2-1.6,4.6-1.6,7.1c0,2.6,0.5,5,1.6,7.2c1,2.2,2.4,4.2,4.2,5.9c1.7,1.7,3.8,3,6.1,4c2.3,1,4.8,1.4,7.5,1.4
		c3.4,0,6.6-0.7,9.6-2c3-1.4,5.5-3.3,7.2-5.7l16.7,22c-3.6,3.5-8.4,6.1-14.3,8.1S54.4,184.9,46.2,184.9z"/>
	<path class="st0" d="M93.2,183.1V99h32c5.1,0,9.9,0.6,14.4,1.8c4.5,1.2,8.3,3.1,11.6,5.5c3.3,2.5,5.9,5.7,7.8,9.5
		c1.9,3.9,2.8,8.4,2.8,13.7c0,7.1-1.3,12.8-4,17.2s-6,7.7-10,9.9s-8.3,3.6-12.9,4.1c-4.6,0.5-8.8,0.4-12.7-0.4V183h-29V183.1z
		 M122.5,138.5c1.7,0.2,3.3,0.3,4.9,0.2c1.6-0.1,2.9-0.5,4.2-1.1c1.2-0.6,2.1-1.6,2.8-2.9c0.7-1.3,1-3,1-5.1c0-2-0.4-3.6-1.3-4.7
		c-0.8-1.1-1.9-2-3.2-2.5c-1.3-0.6-2.7-0.9-4.2-0.9s-2.9,0-4.2,0.2V138.5z"/>
	<path class="st0" d="M172.7,183.1V99h32c5.1,0,9.9,0.6,14.4,1.8c4.5,1.2,8.3,3.1,11.6,5.5c3.3,2.5,5.9,5.7,7.8,9.5
		c1.9,3.9,2.8,8.4,2.8,13.7c0,7.1-1.3,12.8-4,17.2s-6,7.7-10,9.9s-8.3,3.6-12.9,4.1s-8.8,0.4-12.7-0.4V183h-29V183.1z M202.1,138.5
		c1.7,0.2,3.3,0.3,4.9,0.2s2.9-0.5,4.2-1.1c1.2-0.6,2.1-1.6,2.8-2.9c0.7-1.3,1-3,1-5.1c0-2-0.4-3.6-1.3-4.7c-0.8-1.1-1.9-2-3.2-2.5
		c-1.3-0.6-2.7-0.9-4.2-0.9s-2.9,0-4.2,0.2L202.1,138.5L202.1,138.5z"/>
	<path class="st0" d="M252.3,183.1V99h31.5c7.8,0,14.4,1.2,19.9,3.5s9.9,5.4,13.4,9.3c3.4,3.9,6,8.3,7.5,13.2
		c1.6,5,2.3,10.1,2.3,15.4c0,6.3-0.8,12-2.5,17.2s-4.3,9.7-7.9,13.5s-8.3,6.7-14,8.8s-12.5,3.2-20.5,3.2L252.3,183.1L252.3,183.1z
		 M280.7,160.7c2.9,0.4,5.4,0.1,7.6-0.8c2.2-1,4-2.4,5.5-4.3c1.4-1.9,2.5-4.1,3.3-6.7c0.8-2.6,1.1-5.4,1.1-8.5
		c0-2.9-0.4-5.6-1.1-8.1c-0.8-2.5-1.9-4.6-3.3-6.3s-3.3-2.9-5.5-3.7s-4.8-0.9-7.6-0.3V160.7z"/>
</g>
<g>
	<path class="st1" d="M37.7,88.8c-5.4,0-10.3-0.7-14.8-2.1s-8.4-3.5-11.6-6.1C8,78,5.5,74.8,3.7,71.2C1.9,67.5,1,63.4,1,58.9V1h29.7
		v59.6c0,1.8,0.7,3.1,2.1,4s3,1.3,4.8,1.3s3.3-0.4,4.8-1.3c1.4-0.9,2.1-2.2,2.1-4V1h29.8v57.8c0,4.5-0.9,8.6-2.8,12.3
		c-1.9,3.7-4.5,6.8-7.7,9.4c-3.3,2.6-7.1,4.6-11.6,6.1C47.7,88,42.9,88.8,37.7,88.8z"/>
	<path class="st1" d="M87.5,86.7V1H115l20.1,39.5V1h28.8v85.7h-28.1l-20-39.2v39.2H87.5z"/>
</g>
</svg>
