<?xml version="1.0" encoding="utf-8"?>
<!-- Generator: Adobe Illustrator 21.0.2, SVG Export Plug-In . SVG Version: 6.00 Build 0)  -->
<svg version="1.1" id="Calque_1" xmlns="http://www.w3.org/2000/svg" xmlns:xlink="http://www.w3.org/1999/xlink" x="0px" y="0px"
	 viewBox="0 0 328.2 85.5" style="enable-background:new 0 0 328.2 85.5;" xml:space="preserve">
<style type="text/css">
	.st0{fill:#17204A;}
	.st1{fill:none;stroke:#17204A;stroke-miterlimit:10;}
</style>
<g>
	<path class="st0" d="M144.3,57.3c-4.1,0-7.9-0.7-11.5-2.2c-3.6-1.5-6.7-3.5-9.4-6.1c-2.7-2.6-4.8-5.6-6.3-9.1
		c-1.6-3.5-2.4-7.2-2.4-11.2c0-3.9,0.8-7.6,2.4-11.1c1.6-3.5,3.7-6.5,6.4-9.1s5.8-4.6,9.4-6.1S140.4,0,144.4,0
		c5.7,0,10.4,0.7,14.2,2.2c3.7,1.4,6.7,3.5,9,5.9l-10.9,14.6c-1.1-1.8-2.6-3.3-4.6-4.4c-2-1-4.1-1.6-6.5-1.6c-1.7,0-3.3,0.3-4.9,0.9
		c-1.5,0.7-2.9,1.5-4,2.6c-1.1,1.1-2,2.4-2.7,3.9c-0.7,1.4-1,3-1,4.6c0,1.7,0.3,3.3,1,4.7c0.7,1.4,1.6,2.7,2.7,3.9
		c1.1,1.1,2.5,2,4,2.6c1.5,0.7,3.1,0.9,4.9,0.9c2.2,0,4.3-0.5,6.3-1.3c2-0.9,3.6-2.2,4.7-3.7l10.9,14.4c-2.4,2.3-5.5,4-9.3,5.3
		C154.3,56.7,149.7,57.3,144.3,57.3z"/>
	<path class="st0" d="M175,56.1V1.2h20.9c3.3,0,6.5,0.4,9.4,1.2c2.9,0.8,5.4,2,7.6,3.6c2.2,1.6,3.9,3.7,5.1,6.2
		c1.2,2.5,1.8,5.5,1.8,8.9c0,4.6-0.8,8.4-2.6,11.2c-1.8,2.9-3.9,5-6.5,6.5c-2.6,1.4-5.4,2.4-8.4,2.7c-3,0.3-5.7,0.3-8.3-0.3V56
		L175,56.1L175,56.1L175,56.1z M194.2,27c1.1,0.1,2.2,0.2,3.2,0.1s1.9-0.3,2.7-0.7c0.8-0.4,1.4-1,1.8-1.9c0.5-0.8,0.7-2,0.7-3.3
		c0-1.3-0.3-2.4-0.8-3.1c-0.5-0.7-1.2-1.3-2.1-1.6c-0.8-0.4-1.8-0.6-2.7-0.6c-1,0-1.9,0-2.7,0.1V27L194.2,27z"/>
	<path class="st0" d="M227,56.1V1.2h20.9c3.3,0,6.5,0.4,9.4,1.2c2.9,0.8,5.4,2,7.6,3.6c2.2,1.6,3.9,3.7,5.1,6.2
		c1.2,2.5,1.8,5.5,1.8,8.9c0,4.6-0.8,8.4-2.6,11.2c-1.8,2.9-3.9,5-6.5,6.5c-2.6,1.4-5.4,2.4-8.4,2.7c-3,0.3-5.7,0.3-8.3-0.3V56
		L227,56.1L227,56.1L227,56.1z M246.2,27c1.1,0.1,2.2,0.2,3.2,0.1c1-0.1,1.9-0.3,2.7-0.7c0.8-0.4,1.4-1,1.8-1.9
		c0.5-0.8,0.7-2,0.7-3.3c0-1.3-0.3-2.4-0.8-3.1c-0.5-0.7-1.2-1.3-2.1-1.6c-0.8-0.4-1.8-0.6-2.7-0.6c-1,0-1.9,0-2.7,0.1V27L246.2,27z
		"/>
	<path class="st1" d="M278.9,56.1V1.2h20.6c5.1,0,9.4,0.8,13,2.3c3.6,1.5,6.5,3.5,8.8,6.1c2.2,2.5,3.9,5.4,4.9,8.6
		c1,3.3,1.5,6.6,1.5,10.1c0,4.1-0.5,7.8-1.6,11.2c-1.1,3.4-2.8,6.3-5.2,8.8c-2.4,2.5-5.4,4.4-9.1,5.7c-3.7,1.4-8.2,2.1-13.4,2.1
		L278.9,56.1L278.9,56.1z M297.5,41.5c1.9,0.3,3.5,0.1,5-0.5c1.4-0.7,2.6-1.6,3.6-2.8c0.9-1.2,1.6-2.7,2.2-4.4
		c0.5-1.7,0.7-3.5,0.7-5.6c0-1.9-0.3-3.7-0.7-5.3c-0.5-1.6-1.2-3-2.2-4.1c-0.9-1.1-2.2-1.9-3.6-2.4s-3.1-0.6-5-0.2V41.5z"/>
</g>
<g>
	<path class="st0" d="M24,57.3c-3.5,0-6.7-0.5-9.7-1.4s-5.5-2.3-7.6-4c-2.2-1.7-3.8-3.8-5-6.1c-1.2-2.4-1.8-5.1-1.8-8V0h19.4v38.9
		c0,1.2,0.5,2,1.4,2.6c0.9,0.6,2,0.8,3.1,0.8c1.2,0,2.2-0.3,3.1-0.8c0.9-0.6,1.4-1.4,1.4-2.6V0h19.5v37.7c0,2.9-0.6,5.6-1.8,8
		c-1.2,2.4-2.9,4.4-5,6.1c-2.2,1.7-4.6,3-7.6,4C30.5,56.8,27.4,57.3,24,57.3z"/>
	<path class="st0" d="M56.5,56V0h18l13.1,25.8V0h18.8v56H88L75,30.4V56H56.5z"/>
</g>
<g>
	<path class="st0" d="M252,85.5h-1.7c-0.9-1.4-1.6-2.8-2-4.2s-0.7-2.9-0.7-4.2c0-1.7,0.3-3.3,0.9-4.8c0.5-1.3,1.1-2.5,1.9-3.6h1.7
		c-0.8,1.8-1.4,3.3-1.7,4.5s-0.5,2.6-0.5,4c0,1,0.1,1.9,0.3,3s0.4,2,0.7,2.9C251.1,83.5,251.5,84.3,252,85.5z"/>
	<path class="st0" d="M262.5,81.7h-2.5l-1.8-4.8c-0.1-0.2-0.2-0.5-0.3-0.8c-0.1-0.2-0.1-0.5-0.3-0.8l-0.5,1.6l-1.8,4.8h-2.6l3.8-9.3
		h2.2L262.5,81.7z"/>
	<path class="st0" d="M272.4,81.7h-2.5v-4.8c0-1-0.1-1.7-0.2-2s-0.3-0.5-0.5-0.7c-0.2-0.2-0.5-0.2-0.9-0.2c-0.4,0-0.8,0.1-1.2,0.4
		s-0.6,0.5-0.7,0.9c-0.1,0.4-0.2,1.1-0.2,2.1v4.2h-2.5v-9.3h2.3v1.4c0.8-1.1,1.8-1.6,3.1-1.6c0.5,0,1,0.1,1.5,0.3s0.8,0.4,1,0.8
		s0.4,0.7,0.5,1c0.1,0.4,0.1,0.9,0.1,1.7V81.7z"/>
	<path class="st0" d="M277.1,71.7h-0.9v-2.9h0.9V71.7z"/>
	<path class="st0" d="M280.8,81.7V68.8h2.5v6.8l2.9-3.3h3l-3.2,3.4l3.4,5.9h-2.7l-2.3-4.2l-1.2,1.2v3H280.8z"/>
	<path class="st0" d="M302.2,78.7l2.4,0.4c-0.3,0.9-0.8,1.6-1.5,2.1s-1.5,0.7-2.6,0.7c-0.7,0-1.3-0.1-1.8-0.3s-1.1-0.5-1.5-1
		c-0.4,0.4-1,0.7-1.6,0.9c-0.7,0.2-1.3,0.4-2,0.4c-1,0-1.8-0.3-2.3-0.8s-0.8-1.2-0.8-2c0-0.5,0.1-0.9,0.3-1.3
		c0.2-0.4,0.4-0.7,0.7-0.9s0.7-0.4,1.2-0.5c0.2-0.1,0.9-0.2,2.1-0.5c0.6-0.1,1.1-0.3,1.5-0.4v-0.2c0-0.5-0.1-0.8-0.4-1
		s-0.6-0.3-1.2-0.3c-0.5,0-0.8,0.1-1.1,0.3s-0.5,0.5-0.6,0.9l-2.2-0.4c0.3-0.9,0.8-1.6,1.4-2c0.6-0.4,1.6-0.6,2.9-0.6
		c0.6,0,1.2,0.1,1.6,0.2s0.9,0.4,1.2,0.6c0.4-0.3,0.7-0.5,1.2-0.6c0.4-0.1,0.9-0.2,1.4-0.2c0.9,0,1.7,0.2,2.4,0.6
		c0.6,0.4,1.2,1,1.5,1.7c0.4,0.8,0.6,1.9,0.5,3.3h-6.2c0.1,0.8,0.3,1.4,0.7,1.7s0.8,0.5,1.3,0.5c0.4,0,0.8-0.1,1.1-0.3
		S302.1,79.1,302.2,78.7z M296.1,77.2c-1.4,0.4-2.1,0.6-2.2,0.6c-0.4,0.1-0.7,0.3-0.8,0.5c-0.2,0.2-0.2,0.4-0.2,0.6
		c0,0.3,0.1,0.6,0.4,0.9c0.3,0.2,0.6,0.4,1,0.4c0.4,0,0.8-0.1,1.2-0.4c0.3-0.2,0.5-0.5,0.5-0.8C296.1,78.7,296.1,78.1,296.1,77.2z
		 M302.3,76.2c0-0.5-0.1-0.9-0.2-1.1c-0.1-0.3-0.4-0.6-0.7-0.8c-0.3-0.2-0.6-0.3-1-0.3c-0.3,0-0.6,0.1-0.9,0.2
		c-0.3,0.2-0.5,0.4-0.6,0.7c-0.2,0.4-0.3,0.8-0.3,1.2H302.3z"/>
	<path class="st0" d="M306.8,72.3h2.3v1.4c0.3-0.5,0.7-0.8,1.2-1.1s1.1-0.4,1.7-0.4c1.1,0,2,0.4,2.8,1.3s1.1,2,1.1,3.6
		c0,1.6-0.4,2.8-1.1,3.6s-1.7,1.3-2.8,1.3c-0.5,0-1-0.1-1.4-0.3s-0.9-0.6-1.3-1.1v4.7h-2.5V72.3z M309.3,76.9c0,1,0.2,1.8,0.6,2.3
		s0.9,0.8,1.5,0.8c0.6,0,1.1-0.2,1.4-0.7s0.6-1.2,0.6-2.3c0-1-0.2-1.7-0.6-2.2s-0.9-0.7-1.5-0.7c-0.6,0-1.1,0.2-1.5,0.7
		S309.3,75.9,309.3,76.9z"/>
	<path class="st0" d="M322.2,72.3v2h-1.7v3.8c0,0.8,0,1.2,0,1.3c0,0.1,0.1,0.2,0.2,0.3c0.1,0.1,0.3,0.1,0.4,0.1c0.2,0,0.6-0.1,1-0.2
		l0.2,1.9c-0.6,0.2-1.2,0.4-2,0.4c-0.4,0-0.8-0.1-1.2-0.2s-0.6-0.3-0.8-0.6c-0.2-0.2-0.3-0.6-0.3-1c-0.1-0.3-0.1-0.9-0.1-1.7v-4.1
		h-1.1v-2h1.1v-1.9l2.5-1.4v3.3H322.2z"/>
	<path class="st0" d="M323.2,85.5c0.5-1,0.8-1.8,1-2.4s0.4-1.2,0.6-1.9s0.3-1.4,0.4-2.1s0.1-1.3,0.1-2c0-1.4-0.1-2.7-0.4-4
		s-0.8-2.8-1.7-4.5h1.7c0.9,1.3,1.6,2.6,2.1,4s0.7,2.8,0.7,4.3c0,1.2-0.2,2.5-0.6,3.9c-0.4,1.6-1.2,3.1-2.2,4.6H323.2z"/>
</g>
</svg>
