<?xml version="1.0" encoding="utf-8"?>
<!-- Generator: Adobe Illustrator 21.0.2, SVG Export Plug-In . SVG Version: 6.00 Build 0)  -->
<svg version="1.1" id="Calque_1" xmlns="http://www.w3.org/2000/svg" xmlns:xlink="http://www.w3.org/1999/xlink" x="0px" y="0px"
	 viewBox="0 0 450.1 94.7" style="enable-background:new 0 0 450.1 94.7;" xml:space="preserve">
<style type="text/css">
	.st0{fill:#230D50;}
	.st1{fill:#5400FF;}
</style>
<g>
	<path class="st0" d="M75.8,10v54.7c0,6.2-1.3,11.6-4,16.1s-6.4,8-11.4,10.4c-4.9,2.4-10.8,3.6-17.5,3.6c-10.2,0-18.2-2.6-24.1-7.9
		s-8.8-12.5-9-21.7V10h20.3v55.5c0.2,9.1,4.5,13.7,12.7,13.7c4.2,0,7.3-1.1,9.5-3.4c2.1-2.3,3.2-6,3.2-11.2V10H75.8z"/>
	<path class="st0" d="M155.3,93.6h-20l-29.6-52v52H85.5V10h20.2l29.6,52V10h20.1V93.6z"/>
	<path class="st0" d="M193.5,62.5l-8.3,9.1v22h-20.2V10h20.2v36.9l7-10.6l18-26.2h24.9l-28.2,37l28.2,46.6h-23.9L193.5,62.5z"/>
	<path class="st0" d="M257.5,65.2v28.4h-20.2V10h33.4c6.4,0,12,1.2,17,3.5c4.9,2.4,8.7,5.7,11.4,10c2.7,4.3,4,9.3,4,14.8
		c0,8.2-2.9,14.7-8.8,19.5c-5.8,4.9-13.8,7.3-24,7.3H257.5z M257.5,49.7h13.2c3.9,0,6.9-1,8.9-2.9c2-2,3.1-4.7,3.1-8.3
		c0-3.9-1.1-7-3.2-9.4c-2.1-2.3-5-3.5-8.6-3.6h-13.4V49.7z"/>
	<path class="st0" d="M331.1,65.2v28.4h-20.2V10h33.4c6.4,0,12,1.2,17,3.5c4.9,2.4,8.7,5.7,11.4,10c2.7,4.3,4,9.3,4,14.8
		c0,8.2-2.9,14.7-8.8,19.5c-5.8,4.9-13.8,7.3-24,7.3H331.1z M331.1,49.7h13.2c3.9,0,6.9-1,8.9-2.9c2-2,3.1-4.7,3.1-8.3
		c0-3.9-1.1-7-3.2-9.4c-2.1-2.3-5-3.5-8.6-3.6h-13.4V49.7z"/>
	<path class="st0" d="M450.1,25.6h-25.1v68h-20.2v-68h-24.6V10h69.9V25.6z"/>
</g>
<g>
	<path class="st1" d="M65.8,0v54.7c0,6.2-1.3,11.6-4,16.1c-2.6,4.5-6.4,8-11.4,10.4c-4.9,2.4-10.8,3.6-17.5,3.6
		c-10.2,0-18.2-2.6-24.1-7.9S0.1,64.3,0,55.1V0h20.3v55.5c0.2,9.1,4.5,13.7,12.7,13.7c4.2,0,7.3-1.1,9.5-3.4s3.2-6,3.2-11.2V0H65.8z
		"/>
	<path class="st1" d="M145.3,83.6h-20l-29.6-52v52H75.5V0h20.2l29.6,52V0h20.1V83.6z"/>
	<path class="st1" d="M183.5,52.5l-8.3,9.1v22h-20.2V0h20.2v36.9l7-10.6l18-26.2h24.9l-28.2,37l28.2,46.6h-23.9L183.5,52.5z"/>
	<path class="st1" d="M247.5,55.2v28.4h-20.2V0h33.4c6.4,0,12,1.2,17,3.5c4.9,2.4,8.7,5.7,11.4,10c2.7,4.3,4,9.3,4,14.8
		c0,8.2-2.9,14.7-8.8,19.5c-5.8,4.9-13.8,7.3-24,7.3H247.5z M247.5,39.7h13.2c3.9,0,6.9-1,8.9-2.9c2-2,3.1-4.7,3.1-8.3
		c0-3.9-1.1-7-3.2-9.4c-2.1-2.3-5-3.5-8.6-3.6h-13.4V39.7z"/>
	<path class="st1" d="M321.1,55.2v28.4h-20.2V0h33.4c6.4,0,12,1.2,17,3.5c4.9,2.4,8.7,5.7,11.4,10c2.7,4.3,4,9.3,4,14.8
		c0,8.2-2.9,14.7-8.8,19.5c-5.8,4.9-13.8,7.3-24,7.3H321.1z M321.1,39.7h13.2c3.9,0,6.9-1,8.9-2.9c2-2,3.1-4.7,3.1-8.3
		c0-3.9-1.1-7-3.2-9.4c-2.1-2.3-5-3.5-8.6-3.6h-13.4V39.7z"/>
	<path class="st1" d="M440.1,15.6h-25.1v68h-20.2v-68h-24.6V0h69.9V15.6z"/>
</g>
</svg>
