<?xml version="1.0" encoding="utf-8"?>
<!-- Generator: Adobe Illustrator 21.0.2, SVG Export Plug-In . SVG Version: 6.00 Build 0)  -->
<svg version="1.1" id="Calque_1" xmlns="http://www.w3.org/2000/svg" xmlns:xlink="http://www.w3.org/1999/xlink" x="0px" y="0px"
	 viewBox="0 0 189.6 79.3" style="enable-background:new 0 0 189.6 79.3;" xml:space="preserve">
<style type="text/css">
	.st0{fill:#5400FF;}
</style>
<g>
	<path class="st0" d="M0,78.4V13.6h23.3c8.3,0,14.7,1.5,19,4.6c4.3,3.1,6.5,7.5,6.5,13.3c0,3.4-0.8,6.2-2.3,8.6
		c-1.5,2.4-3.8,4.1-6.8,5.2c3.4,0.9,6,2.6,7.8,5c1.8,2.4,2.7,5.4,2.7,8.9c0,6.3-2,11.1-6,14.3c-4,3.2-10,4.8-17.9,4.9H0z M15.6,40.6
		h8.1c3.4,0,5.8-0.7,7.3-1.9c1.5-1.2,2.2-3,2.2-5.4c0-2.7-0.8-4.7-2.4-5.9c-1.6-1.2-4.1-1.8-7.6-1.8h-7.7V40.6z M15.6,50.8v15.5
		h10.2c2.8,0,5-0.6,6.5-1.9c1.5-1.3,2.3-3.1,2.3-5.4c0-5.4-2.7-8.1-8.1-8.1H15.6z"/>
	<path class="st0" d="M80.8,7.7H49.9V0h30.9V7.7z M73.1,78.4H57.5V13.6h15.6V78.4z"/>
	<path class="st0" d="M105.8,55.5h-8.5v22.9H81.7V13.6h25.5c7.7,0,13.7,1.7,18,5.1c4.3,3.4,6.5,8.2,6.5,14.4c0,4.5-0.9,8.2-2.7,11.2
		c-1.8,3-4.7,5.4-8.6,7.2l13.5,26.1v0.7h-16.7L105.8,55.5z M97.3,43.5h9.9c3,0,5.2-0.8,6.7-2.3c1.5-1.6,2.2-3.7,2.2-6.5
		c0-2.8-0.8-5-2.3-6.6s-3.7-2.4-6.7-2.4h-9.9V43.5z"/>
	<path class="st0" d="M189.6,13.6V56c0,4.8-1,9-3.1,12.5c-2,3.5-5,6.2-8.8,8c-3.8,1.8-8.3,2.8-13.6,2.8c-7.9,0-14.1-2-18.6-6.1
		s-6.8-9.7-6.9-16.8V13.6h15.7v43c0.2,7.1,3.5,10.6,9.9,10.6c3.2,0,5.7-0.9,7.3-2.7c1.7-1.8,2.5-4.7,2.5-8.7V13.6H189.6z"/>
</g>
</svg>
